<svg xmlns="http://www.w3.org/2000/svg" height="95" version="1.1" viewBox="-38 0 550 550" width="95">
<g id="surface1">
<path d="M 413.476562 341.910156 C 399.714844 379.207031 378.902344 411.636719 351.609375 438.289062 C 320.542969 468.625 279.863281 492.730469 230.699219 509.925781 C 229.085938 510.488281 227.402344 510.949219 225.710938 511.289062 C 223.476562 511.730469 221.203125 511.96875 218.949219 512 L 218.507812 512 C 216.105469 512 213.691406 511.757812 211.296875 511.289062 C 209.605469 510.949219 207.945312 510.488281 206.339844 509.9375 C 157.117188 492.769531 116.386719 468.675781 85.289062 438.339844 C 57.984375 411.6875 37.175781 379.277344 23.433594 341.980469 C -1.554688 274.167969 -0.132812 199.464844 1.011719 139.433594 L 1.03125 138.511719 C 1.261719 133.554688 1.410156 128.347656 1.492188 122.597656 C 1.910156 94.367188 24.355469 71.011719 52.589844 69.4375 C 111.457031 66.152344 156.996094 46.953125 195.90625 9.027344 L 196.246094 8.714844 C 202.707031 2.789062 210.847656 -0.117188 218.949219 0.00390625 C 226.761719 0.105469 234.542969 3.007812 240.773438 8.714844 L 241.105469 9.027344 C 280.023438 46.953125 325.5625 66.152344 384.429688 69.4375 C 412.664062 71.011719 435.109375 94.367188 435.527344 122.597656 C 435.609375 128.386719 435.757812 133.585938 435.988281 138.511719 L 436 138.902344 C 437.140625 199.046875 438.554688 273.898438 413.476562 341.910156 Z M 413.476562 341.910156 " style=" stroke:none;fill-rule:nonzero;fill:rgb(60.392157%,90.196078%,96.862745%);fill-opacity:1;" />
<path d="M 413.476562 341.910156 C 399.714844 379.207031 378.902344 411.636719 351.609375 438.289062 C 320.542969 468.625 279.863281 492.730469 230.699219 509.925781 C 229.085938 510.488281 227.402344 510.949219 225.710938 511.289062 C 223.476562 511.730469 221.203125 511.96875 218.949219 512 L 218.949219 0.00390625 C 226.761719 0.105469 234.542969 3.007812 240.773438 8.714844 L 241.105469 9.027344 C 280.023438 46.953125 325.5625 66.152344 384.429688 69.4375 C 412.664062 71.011719 435.109375 94.367188 435.527344 122.597656 C 435.609375 128.386719 435.757812 133.585938 435.988281 138.511719 L 436 138.902344 C 437.140625 199.046875 438.554688 273.898438 413.476562 341.910156 Z M 413.476562 341.910156 " style=" stroke:none;fill-rule:nonzero;fill:rgb(18.431373%,75.294118%,94.117647%);fill-opacity:1;" />
<path d="M 286.507812 219.605469 C 286.507812 241.546875 276.011719 261.847656 258.585938 274.558594 L 258.222656 323.5 C 258.195312 345.273438 240.648438 363.023438 218.953125 363.363281 C 218.734375 363.371094 218.523438 363.371094 218.304688 363.371094 C 196.28125 363.371094 178.371094 345.464844 178.371094 323.441406 L 178.371094 323.339844 L 178.722656 274.769531 C 161.105469 262.089844 150.5 241.707031 150.5 219.605469 C 150.5 182.097656 181.007812 151.589844 218.503906 151.589844 C 218.652344 151.589844 218.804688 151.589844 218.953125 151.601562 C 256.242188 151.832031 286.507812 182.246094 286.507812 219.605469 Z M 286.507812 219.605469 " style=" stroke:none;fill-rule:nonzero;fill:rgb(100%,100%,100%);fill-opacity:1;" />
<path d="M 286.507812 219.605469 C 286.507812 241.546875 276.011719 261.847656 258.585938 274.558594 L 258.222656 323.5 C 258.195312 345.273438 240.648438 363.023438 218.953125 363.363281 L 218.953125 151.601562 C 256.242188 151.832031 286.507812 182.246094 286.507812 219.605469 Z M 286.507812 219.605469 " style=" stroke:none;fill-rule:nonzero;fill:rgb(88.235294%,92.156863%,94.117647%);fill-opacity:1;" />
</g>
</svg>